Coordinates
version=1
nRows=9
nColumns=36
inDegrees=yes

Units are S.I. units (second, meters, Newtons, ...)
If the header above contains a line with 'inDegrees', this indicates whether rotational values are in degrees (yes) or radians (no).

endheader
time	pelvis_tilt	pelvis_list	pelvis_rotation	pelvis_tx	pelvis_ty	pelvis_tz	hip_flexion_r	hip_adduction_r	hip_rotation_r	knee_angle_r	knee_angle_r_beta	ankle_angle_r	subtalar_angle_r	mtp_angle_r	hip_flexion_l	hip_adduction_l	hip_rotation_l	knee_angle_l	knee_angle_l_beta	ankle_angle_l	subtalar_angle_l	mtp_angle_l	lumbar_extension	lumbar_bending	lumbar_rotation	arm_flex_r	arm_add_r	arm_rot_r	elbow_flex_r	pro_sup_r	arm_flex_l	arm_add_l	arm_rot_l	elbow_flex_l	pro_sup_l
     45.43333330	      7.32200941	     -1.37592507	     -1.53720033	      0.40483949	      1.05589940	      0.69324982	     17.70848748	     -1.07167556	     -0.66302656	     45.76476420	      0.79874582	      3.51329451	    -15.89519034	     -7.49999987	     -8.50707735	      0.92792337	      1.45987140	      9.91555001	      0.17305899	      9.02539798	     -6.06415296	     -7.49999987	    -20.78032313	     -2.51844900	      4.95024802	     -4.92504582	    -14.90767352	     -1.65416128	     35.18994599	     86.17890799	     20.85924966	    -14.64697612	     27.48449715	     23.70458176	     88.21584482
     45.45000000	      7.34433175	     -1.41233137	     -1.10786314	      0.40500512	      1.05485631	      0.69298557	     18.09588189	     -1.13603941	     -1.17441665	     41.00203975	      0.71562059	      3.08825303	    -15.40390092	     -7.49999987	     -9.83985831	      0.70322784	      1.56277667	      9.76668710	      0.17046085	      9.20390718	     -6.27355222	     -7.49999987	    -21.03212394	     -2.25323118	      4.83242809	     -6.30171344	    -14.72855916	     -2.41222633	     34.66426973	     86.52604881	     21.95027547	    -14.97252324	     27.53795322	     24.93438356	     87.95689863
     45.46666670	      7.36256136	     -1.41003399	     -0.76637219	      0.40469498	      1.05333785	      0.69325452	     18.13542889	     -1.27194865	     -1.78136355	     35.61369121	      0.62157617	      2.23821171	    -14.69708044	     -7.49999987	    -11.13148813	      0.48409449	      1.73307653	      9.58005497	      0.16720350	      9.47339304	     -6.26610352	     -7.49999987	    -21.30061933	     -2.05669132	      5.14982352	     -8.07043152	    -14.42159877	     -3.84399831	     34.70468579	     86.29789835	     23.17999184	    -15.15425298	     28.32291158	     25.91199924	     86.70522130
     45.48333330	      7.13899561	     -1.28418132	     -0.58021332	      0.40343688	      1.05128097	      0.69463682	     18.19030173	     -1.50965468	     -2.38105727	     29.79617748	      0.52004140	      1.17858997	    -13.65910974	     -7.49999987	    -12.23935590	      0.39421252	      1.99448552	      9.14545048	      0.15961822	      9.58177530	     -6.28839585	     -7.49999987	    -21.25241972	     -2.00753407	      5.39984889	     -9.50459519	    -13.96536308	     -5.32564007	     34.49290773	     86.30145325	     24.03457109	    -15.52477258	     29.24091150	     26.90348654	     85.54373770
     45.50000000	      6.79045974	     -0.95255432	     -0.39565378	      0.40158926	      1.04815117	      0.69646608	     18.21905933	     -1.95147320	     -3.07322284	     23.85788454	      0.41639864	      0.21227483	    -12.13406649	     -7.49999987	    -13.17950624	      0.50809728	      2.31599616	      8.66429140	      0.15122041	      9.71964627	     -6.32093667	     -7.49999987	    -21.01686709	     -2.23054843	      5.53773654	    -10.70429964	    -13.46079281	     -6.49565372	     34.17754928	     86.58543074	     24.70753367	    -16.03602078	     30.00877920	     27.92797668	     84.62920453
     45.51666670	      6.47233669	     -0.57637880	     -0.16385241	      0.40039063	      1.04323146	      0.69756315	     18.13597161	     -2.38341548	     -3.79733309	     18.16841076	      0.31709859	     -0.32783595	    -10.08046894	     -7.49999987	    -14.03610413	      0.64451028	      2.47831344	      8.32667908	      0.14532797	     10.05764973	     -6.38770474	     -7.49999987	    -20.82896327	     -2.50128661	      6.12873403	    -12.27300549	    -12.56476920	     -9.05188010	     34.69093445	     88.49709497	     25.92623503	    -16.20702165	     32.46179405	     28.17685615	     82.98103584
     45.53333330	      5.90165438	     -0.16257138	      0.06972510	      0.40072191	      1.03567583	      0.69771182	     18.34890898	     -2.74384644	     -4.30404555	     13.13872160	      0.22931395	     -0.36779186	     -7.72384656	     -7.49999987	    -14.48784247	      0.80947259	      2.43020383	      8.29555938	      0.14478482	     10.51116250	     -6.66279412	     -7.49999987	    -20.17519398	     -2.79894076	      5.54528465	    -12.38296373	    -12.15363346	     -8.94359327	     33.55721464	     88.35738304	     25.60622233	    -17.11772625	     32.06135196	     29.74217286	     82.04755880
     45.55000000	      5.38884020	      0.10983617	      0.24217576	      0.40236590	      1.02770649	      0.69791500	     18.57241328	     -2.84403191	     -4.54584488	      9.11840492	      0.15914619	      0.21437887	     -5.18172930	     -7.49999987	    -14.88528175	      0.83018111	      2.10724682	      8.62093612	      0.15046372	     11.38720010	     -6.73110886	     -7.49999987	    -19.48461227	     -2.95518658	      5.30454249	    -12.90292155	    -11.84471072	     -8.87820342	     33.30622092	     88.56901121	     25.47633598	    -17.63679511	     31.96097093	     30.54275252	     81.67326092
     45.56666670	      4.81050607	      0.15455977	      0.28740160	      0.40544796	      1.02182595	      0.69901639	     18.97196051	     -2.62209770	     -4.40866889	      6.39082695	      0.11154097	      0.97087397	     -3.06848713	     -7.49999987	    -15.08131302	      0.66667472	      1.81926191	      9.24218624	      0.16130658	     12.49644393	     -6.84034465	     -7.49999987	    -18.61295338	     -2.87747126	      5.44743862	    -13.56214890	    -11.62039803	     -9.19592510	     33.23164515	     88.67354205	     25.27772835	    -17.91317778	     31.92395048	     31.33465692	     81.47598589
